<svg width="296" height="193" viewBox="0 0 296 193" fill="none" xmlns="http://www.w3.org/2000/svg">
<line x1="6" y1="97.7287" x2="178.893" y2="97.7287" stroke="#919E9F" stroke-width="1.27551" stroke-dasharray="10.2 2.55"/>
<line x1="178.814" y1="30.156" x2="178.814" y2="163.705" stroke="#919E9F" stroke-width="1.27551" stroke-dasharray="10.2 2.55"/>
<line x1="177.997" y1="29.8687" x2="254.003" y2="29.8687" stroke="#919E9F" stroke-width="1.27551" stroke-dasharray="10.2 2.55"/>
<line x1="179" y1="163.362" x2="252" y2="163.362" stroke="#919E9F" stroke-width="1.27551" stroke-dasharray="10.2 2.55"/>
<rect x="236.311" y="133.295" width="59.6887" height="59.7053" fill="#323033"/>
<rect x="236.312" width="59.6887" height="59.7053" fill="#323033"/>
<path d="M286.049 17.3596C285.671 17.117 284.722 16.8039 283.956 16.6687C283.376 16.5663 282.013 16.4888 281.711 16.5411C281.621 16.5567 281.341 16.6019 281.089 16.6416C280.007 16.8116 278.84 17.4147 278.218 18.1249C277.6 18.8311 277.255 19.7354 277.256 20.6447C277.258 21.6541 277.641 22.5832 278.357 23.3163C278.895 23.8665 279.615 24.2585 280.794 24.6424C281.244 24.7891 281.989 25.0305 282.448 25.1787C283.523 25.5257 283.988 25.7668 284.32 26.1485C285.023 26.956 284.728 28.1602 283.696 28.6976C282.511 29.3146 280.145 29.1864 278.276 28.4039C277.237 27.9687 277.039 28.0962 277.075 29.1768C277.099 29.9189 277.176 30.0744 277.658 30.361C278.664 30.9586 280.577 31.3356 282.229 31.2618C283.977 31.1837 285.252 30.6836 286.172 29.7153C286.977 28.8676 287.291 28.0975 287.301 26.9419C287.309 26.0633 287.163 25.5335 286.724 24.847C286.153 23.9545 285.498 23.5788 283.166 22.8054C280.795 22.019 280.295 21.7517 280.001 21.1099C279.718 20.4929 279.937 19.6168 280.472 19.2249C281.411 18.5363 283.906 18.5548 285.445 19.2617C285.643 19.3525 285.926 19.4436 286.075 19.4642C286.475 19.5198 286.56 19.3642 286.56 18.5735C286.56 17.8283 286.479 17.6354 286.049 17.3596Z" fill="white"/>
<path d="M260.066 17.3871C260.014 17.2839 259.906 17.1411 259.828 17.0696C259.703 16.9545 259.568 16.9367 258.659 16.9156C257.786 16.8953 257.608 16.908 257.483 16.9998C257.27 17.1562 257.292 17.5164 257.571 18.4259C257.699 18.8451 257.828 19.2775 257.858 19.3868C257.923 19.6232 258.389 21.1804 259.038 23.33C259.297 24.1866 259.533 24.9769 259.563 25.0863C259.592 25.1956 259.767 25.7846 259.95 26.3951C260.134 27.0056 260.434 28.0048 260.618 28.6153C260.801 29.2258 260.995 29.8721 261.049 30.0515C261.276 30.7984 261.445 30.8851 262.676 30.8851C263.647 30.8851 263.933 30.8158 264.114 30.536C264.213 30.3827 264.371 29.7702 264.998 27.1076C265.148 26.4697 265.346 25.6347 265.436 25.2519C266.263 21.7612 266.428 21.056 266.475 20.8117C266.545 20.4471 266.58 20.3478 266.638 20.3478C266.668 20.3478 266.787 20.7579 266.902 21.259C267.017 21.7602 267.225 22.6325 267.363 23.1975C267.608 24.1987 267.692 24.552 268.178 26.6105C268.307 27.1573 268.441 27.709 268.476 27.8366C268.511 27.9641 268.657 28.5678 268.8 29.1781C268.944 29.7884 269.108 30.3798 269.166 30.4922C269.332 30.8172 269.589 30.8852 270.652 30.8848C271.464 30.8846 271.615 30.8675 271.797 30.7552C272.098 30.57 272.126 30.4987 272.836 28.1679C272.919 27.8946 273.164 27.1043 273.38 26.4117C273.596 25.7192 273.881 24.7947 274.014 24.3573C274.147 23.9199 274.343 23.2787 274.451 22.9324C274.558 22.5861 274.673 22.2134 274.707 22.104C274.769 21.8996 275.13 20.732 275.475 19.6188C276.174 17.3597 276.186 17.3034 276.019 17.0947C275.893 16.9381 275.869 16.9348 274.883 16.9348C274.242 16.9348 273.902 16.9187 273.678 17.0724C273.399 17.2642 273.301 17.7203 273.026 18.8015C272.86 19.4514 272.651 20.2666 272.562 20.6129C272.213 21.9573 271.34 25.3852 270.907 27.1076C270.811 27.4903 270.705 27.8034 270.672 27.8034C270.639 27.8034 270.544 27.5052 270.462 27.1407C270.379 26.7762 270.208 26.0456 270.083 25.517C269.798 24.319 269.208 21.7758 268.829 20.1158C268.186 17.3 268.163 17.2232 267.892 17.0435C267.757 16.9544 267.543 16.9348 266.709 16.9348C265.411 16.9348 265.283 17.0022 265.099 17.7822C265.054 17.9722 264.865 18.7838 264.68 19.5857C264.495 20.3875 264.272 21.3419 264.185 21.7064C264.099 22.0709 263.955 22.6822 263.867 23.065C263.779 23.4477 263.571 24.3424 263.405 25.0531C263.239 25.7639 263.036 26.6437 262.954 27.0082C262.871 27.3727 262.776 27.6651 262.742 27.658C262.708 27.651 262.394 26.5028 262.046 25.1065C261.697 23.7103 261.13 21.4444 260.787 20.0713C260.443 18.6981 260.119 17.4903 260.066 17.3871Z" fill="white"/>
<path d="M289.086 34.934C288.971 34.7082 288.51 34.4942 287.848 34.359C287.59 34.3063 286.878 34.2513 286.265 34.2368C285.111 34.2095 285.018 34.2141 284.201 34.3396C283.765 34.4066 283.533 34.4594 282.792 34.6614C282.451 34.7544 282.079 34.9056 281.642 35.1278C280.75 35.582 280.408 35.9225 280.603 36.1602C280.617 36.1775 280.626 36.1925 280.638 36.2047C280.71 36.2776 280.877 36.2569 282.727 36.0902C285.248 35.863 286.579 36.0136 286.936 36.5664C287.124 36.857 287.079 37.7759 286.832 38.7088C286.63 39.4741 286.213 40.7164 285.811 41.7538C285.541 42.4517 285.513 42.5685 285.589 42.7053C285.849 43.1745 287.073 41.9767 287.922 40.4235C288.257 39.81 288.692 38.6893 288.893 37.9207C289.18 36.8266 289.278 35.3088 289.086 34.934Z" fill="white"/>
<path d="M244.362 35.6889C243.984 35.4778 243.6 35.2651 243.51 35.2162C242.973 34.9248 242.609 35.4168 243.027 35.8688C243.308 36.1725 244.62 37.2706 245.476 37.9185C246.661 38.8157 247.888 39.6198 249.309 40.4314C249.626 40.6126 251.474 41.545 251.93 41.7545C252.996 42.2435 255.086 43.0061 256.451 43.4043C259.805 44.382 263.94 44.8628 267.4 44.6772C269.346 44.5728 270.938 44.393 272.145 44.1412C272.307 44.1074 272.616 44.0441 272.833 44.0006C275.398 43.4846 278.163 42.5754 280.392 41.5154C280.729 41.3549 281.017 41.2236 281.031 41.2236C281.084 41.2236 282.832 40.2265 283.355 39.8971C284.255 39.3309 284.928 38.8198 285.026 38.6273C285.171 38.3451 285.14 38.1199 284.927 37.9049C284.667 37.6423 284.313 37.6447 283.67 37.9136C280.688 39.1601 276.588 40.3437 273.824 40.7561C273.603 40.7891 273.113 40.8647 272.734 40.9241C270.679 41.2468 268.881 41.3627 266.149 41.3486C264.888 41.342 263.59 41.3122 263.266 41.2821C260.942 41.0671 260.659 41.0325 258.974 40.7572C256.609 40.3707 254.425 39.8309 251.963 39.0244C250.878 38.6691 249.109 37.9993 248.326 37.6472C248.182 37.5825 247.814 37.4172 247.507 37.2801C246.756 36.9439 245.204 36.1588 244.362 35.6889Z" fill="white"/>
<path fill-rule="evenodd" clip-rule="evenodd" d="M251.57 16.5725C254.043 16.8357 255.325 17.927 255.809 20.1821C255.887 20.549 255.917 21.4084 255.952 24.291C255.986 27.1412 256.015 27.9793 256.085 28.1348C256.134 28.2441 256.276 28.5573 256.401 28.8307C256.667 29.4121 256.724 29.6859 256.62 29.8828C256.578 29.9612 256.258 30.2188 255.908 30.4552C255.219 30.9218 254.905 30.9988 254.593 30.7777C254.39 30.6342 253.935 29.9971 253.732 29.573C253.642 29.3845 253.533 29.2299 253.491 29.2294C253.448 29.2288 253.242 29.3947 253.032 29.5982C252.231 30.3753 251.247 30.8917 250.133 31.1202C249.37 31.2764 248.048 31.2264 247.442 31.0182C246.707 30.7659 246.316 30.5347 245.872 30.0898C245.071 29.2883 244.731 28.3774 244.734 27.0413C244.735 26.3175 244.758 26.146 244.913 25.6827C245.207 24.8092 245.568 24.2856 246.276 23.711C246.915 23.1924 247.605 22.8928 248.608 22.6988C249.522 22.5219 251.138 22.5953 252.487 22.8748C252.685 22.9159 252.951 22.9532 253.077 22.9575L253.306 22.9655L253.293 22.0621C253.262 19.9197 252.753 19.1581 251.145 18.8452C250.515 18.7226 249.433 18.7552 248.664 18.9201C248.086 19.044 247.084 19.3618 246.688 19.5465C246.544 19.6138 246.305 19.6894 246.156 19.7144C245.833 19.769 245.7 19.6663 245.634 19.3138C245.56 18.9148 245.638 18.0587 245.766 17.861C246.014 17.4779 247.807 16.812 249.047 16.6423C250.126 16.4947 250.691 16.4791 251.57 16.5725ZM248.036 25.3593C248.395 24.9615 248.788 24.7594 249.466 24.6226C250.051 24.5047 250.865 24.5034 251.769 24.619C252.791 24.7498 253.223 24.8405 253.29 24.9379C253.363 25.045 253.29 26.2562 253.182 26.727C252.957 27.7055 252.042 28.578 250.9 28.9035C250.123 29.125 249.061 29.1254 248.574 28.9046C247.85 28.5766 247.48 27.9003 247.483 26.9088C247.485 26.2293 247.639 25.7984 248.036 25.3593Z" fill="white"/>
<path d="M280.752 156.602C280.68 156.562 280.604 156.531 280.519 156.516C280.19 156.456 279.869 156.426 279.555 156.41C277.969 150.617 272.595 146.473 266.55 146.473C259.109 146.473 253.056 152.524 253.056 159.963C253.056 160.368 253.076 160.776 253.117 161.191C252.652 161.074 252.152 161.012 251.623 161.043C251.619 161.043 251.615 161.043 251.612 161.043C251.602 161.043 251.593 161.044 251.584 161.044C251.575 161.045 251.567 161.044 251.557 161.045C251.555 161.045 251.553 161.046 251.551 161.046C247.479 161.078 244.176 164.397 244.176 168.476C244.176 172.575 247.512 175.911 251.611 175.911H259.958C260.009 175.911 260.058 175.906 260.106 175.896C260.144 175.902 260.181 175.908 260.221 175.908C266.302 175.908 267.579 171.716 267.579 168.199V167.474L269.756 169.269C269.756 169.269 270.5 168.275 270.647 168.079L267.321 165.423C267.315 165.418 267.308 165.416 267.301 165.411C267.278 165.396 267.255 165.382 267.231 165.369C267.211 165.358 267.191 165.347 267.171 165.339C267.149 165.329 267.127 165.322 267.104 165.315C267.08 165.307 267.056 165.299 267.032 165.294C267.01 165.289 266.988 165.287 266.966 165.284C266.941 165.281 266.916 165.277 266.891 165.277C266.868 165.276 266.844 165.278 266.821 165.28C266.797 165.282 266.773 165.283 266.75 165.288C266.726 165.292 266.703 165.298 266.679 165.304C266.656 165.311 266.634 165.316 266.611 165.325C266.59 165.334 266.568 165.344 266.547 165.355C266.524 165.366 266.501 165.378 266.48 165.392C266.472 165.396 266.464 165.399 266.457 165.403L262.986 168.04C263.13 168.252 263.822 169.269 263.822 169.269L266.092 167.449V168.199C266.092 172.444 264.226 174.421 260.22 174.421C260.169 174.421 260.12 174.427 260.072 174.436C260.034 174.43 259.997 174.425 259.957 174.425H251.611C248.331 174.425 245.663 171.756 245.663 168.476C245.663 165.196 248.331 162.529 251.611 162.529C252.087 162.529 252.571 162.598 253.055 162.724C254.283 163.141 255.149 164.053 255.169 164.075C255.347 164.075 256.124 163.202 256.267 163.072C256.223 163.024 255.641 162.4 254.71 161.854C254.604 161.199 254.542 160.574 254.542 159.963C254.542 153.344 259.929 147.959 266.55 147.959C271.815 147.959 276.502 151.494 278.023 156.477C276.105 156.743 274.754 157.586 274.676 157.636C274.818 157.858 275.475 158.889 275.475 158.889C275.492 158.878 276.871 158.026 278.717 157.9L278.972 157.902C283.492 157.941 287.169 161.645 287.169 166.16C287.169 170.716 283.462 174.424 278.905 174.424H272.653V175.91H278.905C284.281 175.91 288.655 171.536 288.655 166.16C288.655 161.438 285.241 157.474 280.752 156.602Z" fill="white"/>
<rect y="73" width="49.2743" height="48.9706" fill="#F8D231"/>
</svg>
