<svg width="628" height="248" viewBox="0 0 628 248" fill="none" xmlns="http://www.w3.org/2000/svg">
<rect x="515.975" y="136.468" width="112.025" height="111.532" fill="#323033"/>
<rect x="515.974" width="112.025" height="111.532" fill="#323033"/>
<path d="M609.324 32.4284C608.614 31.9751 606.834 31.3902 605.397 31.1376C604.307 30.9464 601.749 30.8016 601.183 30.8993C601.014 30.9285 600.489 31.013 600.015 31.087C597.985 31.4047 595.794 32.5312 594.628 33.8579C593.468 35.1772 592.82 36.8665 592.822 38.565C592.825 40.4506 593.544 42.1863 594.888 43.5556C595.897 44.5836 597.249 45.3158 599.462 46.0329C600.307 46.307 601.704 46.7578 602.566 47.0348C604.583 47.683 605.456 48.1333 606.08 48.8464C607.399 50.3549 606.846 52.6043 604.909 53.6083C602.684 54.7609 598.244 54.5214 594.736 53.0595C592.786 52.2465 592.414 52.4847 592.481 54.5034C592.528 55.8896 592.672 56.1802 593.577 56.7156C595.464 57.8319 599.055 58.5362 602.155 58.3983C605.436 58.2523 607.83 57.3181 609.556 55.5093C611.066 53.9259 611.655 52.4872 611.674 50.3285C611.689 48.6873 611.415 47.6975 610.591 46.4152C609.52 44.748 608.29 44.046 603.913 42.6013C599.463 41.1324 598.526 40.633 597.974 39.4341C597.442 38.2815 597.853 36.6449 598.857 35.9127C600.621 34.6264 605.302 34.661 608.191 35.9816C608.562 36.1512 609.094 36.3214 609.373 36.3599C610.125 36.4636 610.284 36.1731 610.284 34.696C610.284 33.3039 610.131 32.9435 609.324 32.4284Z" fill="white"/>
<path d="M560.56 32.4796C560.461 32.287 560.26 32.0201 560.113 31.8865C559.877 31.6716 559.624 31.6384 557.918 31.5989C556.281 31.5609 555.947 31.5847 555.712 31.7561C555.312 32.0484 555.353 32.7212 555.876 34.4202C556.117 35.2032 556.36 36.011 556.415 36.2153C556.536 36.6569 557.411 39.5658 558.63 43.5814C559.116 45.1815 559.559 46.6578 559.614 46.8621C559.67 47.0664 559.997 48.1667 560.342 49.3071C560.687 50.4476 561.251 52.314 561.594 53.4544C561.938 54.5949 562.303 55.8023 562.405 56.1374C562.829 57.5325 563.147 57.6946 565.458 57.6946C567.28 57.6946 567.816 57.5651 568.156 57.0424C568.343 56.7561 568.639 55.6119 569.816 50.638C570.098 49.4464 570.468 47.8865 570.638 47.1716C572.19 40.6508 572.499 39.3334 572.587 38.877C572.718 38.196 572.784 38.0104 572.894 38.0104C572.95 38.0104 573.173 38.7765 573.39 39.7126C573.606 40.6489 573.995 42.2784 574.254 43.3338C574.714 45.2042 574.872 45.8641 575.784 49.7095C576.026 50.7308 576.278 51.7615 576.344 51.9998C576.409 52.2381 576.683 53.3658 576.952 54.5059C577.221 55.646 577.53 56.7506 577.637 56.9607C577.949 57.5678 578.432 57.6947 580.427 57.6941C581.952 57.6937 582.235 57.6618 582.577 57.4519C583.141 57.1059 583.194 56.9727 584.527 52.6188C584.683 52.1081 585.142 50.6318 585.547 49.3381C585.952 48.0444 586.487 46.3174 586.737 45.5003C586.986 44.6832 587.355 43.4854 587.557 42.8386C587.759 42.1917 587.975 41.4954 588.037 41.2911C588.154 40.9093 588.831 38.7282 589.478 36.6486C590.791 32.4285 590.814 32.3234 590.5 31.9335C590.264 31.641 590.219 31.6347 588.368 31.6347C587.164 31.6347 586.526 31.6048 586.106 31.8919C585.583 32.2501 585.399 33.1021 584.882 35.1219C584.571 36.336 584.179 37.8587 584.011 38.5056C583.358 41.017 581.719 47.4204 580.905 50.638C580.725 51.3529 580.526 51.9379 580.465 51.9379C580.403 51.9379 580.225 51.3808 580.07 50.6999C579.914 50.019 579.594 48.6541 579.359 47.6668C578.825 45.4287 577.717 40.6779 577.006 37.5771C575.799 32.3169 575.755 32.1736 575.246 31.8378C574.994 31.6715 574.592 31.6347 573.027 31.6347C570.592 31.6347 570.351 31.7606 570.005 33.2178C569.92 33.5728 569.567 35.0887 569.219 36.5867C568.871 38.0847 568.453 39.8674 568.29 40.5483C568.127 41.2292 567.858 42.3712 567.693 43.0862C567.527 43.8011 567.137 45.4724 566.825 46.8002C566.514 48.128 566.133 49.7714 565.978 50.4523C565.824 51.1332 565.645 51.6795 565.581 51.6663C565.517 51.6532 564.929 49.5083 564.275 46.9C563.62 44.2918 562.557 40.0589 561.912 37.4939C561.267 34.9288 560.659 32.6724 560.56 32.4796Z" fill="white"/>
<path d="M615.025 65.2582C614.808 64.8364 613.943 64.4366 612.701 64.184C612.217 64.0855 610.88 63.9828 609.73 63.9557C607.563 63.9047 607.389 63.9133 605.857 64.1477C605.037 64.273 604.603 64.3716 603.213 64.749C602.572 64.9227 601.873 65.2051 601.054 65.6202C599.38 66.4687 598.737 67.1048 599.103 67.5487C599.129 67.5811 599.147 67.609 599.169 67.6319C599.304 67.7681 599.617 67.7294 603.09 67.418C607.821 66.9936 610.319 67.2749 610.989 68.3076C611.341 68.8503 611.258 70.567 610.794 72.3097C610.414 73.7393 609.632 76.06 608.878 77.9978C608.37 79.3016 608.319 79.5198 608.461 79.7753C608.949 80.6518 611.247 78.4142 612.84 75.5128C613.469 74.3668 614.285 72.2732 614.663 70.8375C615.2 68.7935 615.384 65.9583 615.025 65.2582Z" fill="white"/>
<path d="M531.086 66.6684C530.375 66.2739 529.656 65.8766 529.487 65.7853C528.478 65.241 527.795 66.1601 528.58 67.0044C529.107 67.5717 531.57 69.623 533.176 70.8333C535.4 72.5093 537.703 74.0113 540.37 75.5275C540.966 75.866 544.433 77.6079 545.29 77.9992C547.289 78.9126 551.212 80.3373 553.775 81.0811C560.069 82.9075 567.83 83.8055 574.324 83.4589C577.976 83.2639 580.963 82.928 583.228 82.4576C583.533 82.3945 584.114 82.2762 584.52 82.195C589.334 81.2311 594.524 79.5327 598.707 77.5525C599.34 77.2527 599.88 77.0074 599.906 77.0074C600.007 77.0074 603.286 75.1447 604.269 74.5294C605.958 73.4717 607.22 72.5169 607.405 72.1573C607.676 71.6303 607.618 71.2095 607.219 70.8079C606.731 70.3174 606.066 70.3218 604.859 70.8241C599.263 73.1528 591.569 75.3637 586.381 76.1341C585.966 76.1958 585.045 76.3369 584.335 76.448C580.478 77.0508 577.104 77.2673 571.976 77.2409C569.609 77.2287 567.174 77.1728 566.565 77.1167C562.202 76.715 561.672 76.6505 558.51 76.1361C554.071 75.4141 549.971 74.4058 545.351 72.8991C543.316 72.2354 539.996 70.9842 538.526 70.3265C538.255 70.2056 537.563 69.897 536.989 69.6408C535.578 69.0126 532.666 67.5461 531.086 66.6684Z" fill="white"/>
<path fill-rule="evenodd" clip-rule="evenodd" d="M544.613 30.958C549.255 31.4497 551.66 33.4882 552.569 37.7009C552.717 38.3862 552.773 39.9917 552.838 45.3765C552.902 50.7008 552.957 52.2665 553.087 52.5569C553.179 52.7612 553.446 53.3461 553.681 53.8568C554.179 54.943 554.286 55.4544 554.091 55.8222C554.013 55.9687 553.412 56.4499 552.756 56.8915C551.462 57.7631 550.872 57.9069 550.286 57.494C549.906 57.2259 549.052 56.0357 548.671 55.2435C548.502 54.8914 548.299 54.6026 548.219 54.6016C548.139 54.6005 547.751 54.9105 547.358 55.2905C545.854 56.7422 544.008 57.707 541.916 58.1337C540.484 58.4256 538.003 58.3322 536.866 57.9433C535.487 57.4719 534.753 57.0399 533.919 56.209C532.416 54.7116 531.778 53.01 531.783 50.5142C531.786 49.1621 531.829 48.8417 532.121 47.9763C532.671 46.3445 533.35 45.3665 534.678 44.293C535.878 43.3243 537.173 42.7646 539.054 42.4022C540.769 42.0718 543.804 42.2088 546.335 42.731C546.707 42.8078 547.205 42.8773 547.442 42.8855L547.872 42.9005L547.847 41.2128C547.789 37.2108 546.834 35.7881 543.816 35.2035C542.633 34.9744 540.604 35.0354 539.16 35.3434C538.075 35.5749 536.193 36.1685 535.451 36.5135C535.181 36.6393 534.732 36.7804 534.453 36.8272C533.847 36.9291 533.596 36.7374 533.473 36.0789C533.334 35.3336 533.48 33.7342 533.72 33.3649C534.186 32.6494 537.551 31.4053 539.878 31.0884C541.903 30.8127 542.965 30.7834 544.613 30.958ZM537.98 47.3722C538.655 46.629 539.391 46.2515 540.665 45.996C541.763 45.7756 543.29 45.7733 544.987 45.9893C546.905 46.2336 547.717 46.4029 547.842 46.585C547.979 46.7851 547.841 49.0475 547.638 49.927C547.216 51.7549 545.499 53.3848 543.356 53.9929C541.897 54.4066 539.904 54.4075 538.99 53.995C537.631 53.3822 536.938 52.1189 536.943 50.2666C536.947 48.9973 537.236 48.1923 537.98 47.3722Z" fill="white"/>
<path d="M599.381 180.133C599.247 180.058 599.104 179.999 598.945 179.971C598.327 179.86 597.725 179.803 597.135 179.773C594.158 168.953 584.073 161.211 572.727 161.211C558.761 161.211 547.4 172.516 547.4 186.412C547.4 187.168 547.439 187.929 547.516 188.706C546.643 188.486 545.705 188.371 544.711 188.429C544.704 188.429 544.697 188.428 544.69 188.428C544.673 188.428 544.656 188.431 544.638 188.431C544.621 188.432 544.606 188.431 544.588 188.432C544.584 188.432 544.58 188.433 544.576 188.433C536.934 188.494 530.735 194.694 530.735 202.314C530.735 209.972 536.995 216.203 544.689 216.203H560.355C560.45 216.203 560.542 216.193 560.633 216.175C560.703 216.186 560.774 216.196 560.848 216.196C572.262 216.196 574.658 208.366 574.658 201.797V200.442L578.743 203.795C578.743 203.795 580.141 201.938 580.415 201.573L574.174 196.611C574.162 196.602 574.149 196.597 574.137 196.589C574.094 196.559 574.05 196.535 574.004 196.51C573.967 196.49 573.93 196.469 573.892 196.453C573.851 196.435 573.809 196.422 573.766 196.409C573.722 196.394 573.677 196.379 573.632 196.37C573.591 196.36 573.549 196.356 573.507 196.35C573.46 196.345 573.414 196.338 573.367 196.337C573.324 196.336 573.279 196.34 573.235 196.344C573.191 196.348 573.146 196.349 573.102 196.358C573.058 196.365 573.013 196.377 572.969 196.389C572.927 196.401 572.884 196.411 572.842 196.428C572.801 196.444 572.761 196.463 572.721 196.484C572.678 196.505 572.636 196.526 572.595 196.552C572.581 196.56 572.566 196.566 572.552 196.574L566.038 201.5C566.307 201.895 567.608 203.795 567.608 203.795L571.867 200.395V201.797C571.867 209.725 568.366 213.42 560.847 213.42C560.751 213.42 560.659 213.43 560.569 213.447C560.498 213.436 560.427 213.426 560.354 213.426H544.689C538.534 213.426 533.525 208.441 533.525 202.314C533.525 196.187 538.534 191.204 544.689 191.204C545.583 191.204 546.491 191.333 547.399 191.569C549.704 192.348 551.33 194.051 551.367 194.092C551.702 194.092 553.16 192.463 553.428 192.219C553.345 192.129 552.253 190.964 550.506 189.944C550.306 188.72 550.19 187.553 550.19 186.411C550.19 174.047 560.301 163.987 572.727 163.987C582.608 163.987 591.405 170.59 594.259 179.899C590.66 180.396 588.124 181.971 587.978 182.063C588.244 182.479 589.477 184.405 589.477 184.405C589.51 184.385 592.098 182.794 595.562 182.558L596.04 182.561C604.523 182.634 611.425 189.553 611.425 197.987C611.425 206.499 604.468 213.424 595.916 213.424H584.182V216.201H595.915C606.006 216.201 614.214 208.031 614.214 197.987C614.214 189.166 607.807 181.762 599.381 180.133Z" fill="white"/>
<line x1="92.9956" y1="123.018" x2="368.981" y2="123.018" stroke="#919E9F" stroke-dasharray="8.58 2.15"/>
<line x1="368.481" y1="55.7825" x2="368.481" y2="192.25" stroke="#919E9F" stroke-dasharray="8.58 2.15"/>
<line x1="368.981" y1="191.75" x2="515.974" y2="191.75" stroke="#919E9F" stroke-dasharray="8.58 2.15"/>
<line x1="368.981" y1="55.2825" x2="515.974" y2="55.2825" stroke="#919E9F" stroke-dasharray="8.58 2.15"/>
<rect y="77.6969" width="92.6533" height="91.7292" fill="#F8D231"/>
</svg>
